<?xml version="1.0" encoding="UTF-8"?><svg id="Layer_1" xmlns="http://www.w3.org/2000/svg" viewBox="0 0 88.89 74.36"><defs><style>.cls-1{fill:#e6e7e8;}</style></defs><path class="cls-1" d="M52.77,41.22c-.38,.61-2.24,.42-5.27,.78-4.63,.56-12.33,2.16-14.64,3.62-2.68,1.7-3.37,2.66-2.27,3.96,1.58,1.86,7.56,1.11,10.51,.27,3.65-1.03,5.21-.84,5.59,.55,.34,1.26-.77,3.24-2.62,4.52-2.13,1.47-6.53,2.6-9.67,1.61-3.3-1.03-5.46-2.36-6.82-5.23-1.08-2.3,1.93-4.46,3.75-5.53,3.99-2.35,13.32-3.94,18.35-4.5-1.38-.49-7.59,.31-9.49,.6-1.9,.29-9.6,1.35-12.78,1.82-3.76,1.45-6.42,1.8-7.39,1.57-1.73-.4-1.58-2.01-.96-2.6,1.13-1.08,3.38-2.5,4.45-2.93,.38-.16,.44,.19,.31,.29-.67,.47-.52,1.01,.12,1.32,.77,.37,2.18,.48,2.81,.46,.97-.03,4.31-.11,6.5-.4,1.58-.19,2.36-.96,1.94-1.72-.09-.17-.68-.6-.87-.63-.42-.09-.86-.07-1.04-.07-3.82-.09-5.46-2.6-4.86-5.06,1.05-4.32,7.2-6.27,14.73-7.56,.26-.04,.28-.21,.02-.18-.46,.05-7.37,1.23-10.52,1.92-3.11,.68-7.61,2.15-8.85,.63-.85-1.04-.92-3.12,.54-4.44,.68-.62,2.24-1.39,3.38-1.06,.23,.06-.04,.32-.24,.25-.46-.17-.75,.24-.73,.43,.02,.27,.27,.55,.57,.59,.25,.03,.78,.35,1.09,.63,.83,.73,.62,1.67,1.84,1.78,2.88,.26,7.79-.31,10.02-1.83,2.79-1.9,5.16-3.14,7.05-2.33,2.35,1.01,1.73,3.5,1.41,4.19-.23,.51-.93,1.03-1.33,1.41-.13,.12-.47,.13-.3-.14,.31-.49,.54-1.29-.69-1.73-1.38-.49-6.58,.86-8.8,1.7-3.19,1.21-3.99,3.23-3.28,5.23,.59,1.64,2.52,1.43,3.62,.99,1.44-.58,2.21-2.04,1.4-3.27-.44-.67-1.57-.97-2.22-.63-.54,.28-1.3,1.1-1.48,1.78-.06,.22-.32,.1-.25-.09,.07-.18,.24-1.2,1.78-2.31,1.51-1.09,4.45-1.2,5.26,2.15,.53,2.2-.68,5.49-4.83,6.35-.35,.07-.29,.22-.11,.22,.52-.01,1.86-.27,2.47-.14,.6,.13,.96,.65,.92,.95-.07,.51-1.16,1.02-2.04,1.28-.31,.09-.25,.3,.07,.23,1.67-.36,4.4-.72,4.89-.93,2-.85,4.84-2.15,7.22-1.21s2.13,1.82,1.74,2.43m-19.62-19.66c1.64-1.36,1.7-2.81,.87-2.89-.33-.03-.23-.39,.01-.37,1.43,.09,3.07,1.33,3.93,2.88,1.04,1.89-1.09,4.89-3.6,3.16-1.72-.16-1.54-2.51-1.22-2.78m22.4-10.71H16.09v53.5H55.56V10.85Z"/><path class="cls-1" d="M63.08,42.16s.1,.07,.17,.1c.08,.03,.16,.05,.25,.08l.04,.22h-1.94l.03-.22c.18-.05,.31-.09,.38-.13,.07-.04,.1-.11,.1-.22v-1.4h-1.87v1.43c0,.1,.04,.17,.1,.21,.07,.04,.2,.08,.38,.11l.03,.21h-1.94l.04-.2c.14-.04,.24-.07,.3-.09,.05-.02,.1-.05,.13-.09,.03-.04,.05-.1,.05-.17v-3.07c0-.1-.03-.16-.08-.2-.05-.03-.13-.06-.22-.08-.09-.02-.15-.04-.19-.05l-.04-.22h1.94l-.03,.21s-.1,.03-.2,.05c-.1,.03-.17,.06-.22,.1-.04,.05-.06,.1-.06,.18v1.3h1.87v-1.3c0-.1-.03-.16-.08-.2-.05-.03-.12-.06-.21-.09-.09-.02-.15-.04-.2-.05l-.03-.21h1.94l-.04,.2s-.11,.03-.2,.06c-.1,.03-.17,.06-.21,.11-.04,.05-.06,.1-.06,.18v3.06c0,.08,.02,.13,.06,.17m-4.04,5.34c0-.42,.09-.8,.26-1.14,.17-.34,.43-.61,.75-.81,.33-.2,.72-.3,1.17-.3s.84,.09,1.16,.28c.32,.19,.56,.45,.72,.78,.16,.33,.24,.71,.24,1.14s-.08,.8-.25,1.13c-.17,.33-.41,.58-.73,.77-.32,.18-.69,.28-1.12,.28s-.82-.09-1.15-.27c-.33-.18-.59-.43-.77-.75-.18-.32-.27-.69-.27-1.1m4.43,5.03c-.19,.03-.31,.06-.37,.09-.06,.03-.09,.07-.09,.13l-.07,3.76h-.32l-2.66-3.29v2.75c0,.06,0,.11,.03,.14,.03,.03,.08,.06,.16,.09,.08,.03,.22,.05,.4,.07v.21h-1.55l.04-.21c.18-.03,.3-.07,.38-.11,.07-.05,.11-.1,.11-.18v-3.12c0-.07-.01-.12-.03-.15-.02-.03-.06-.06-.13-.08-.07-.02-.18-.05-.34-.08l-.03-.22h1.36l2.23,2.8-.02-2.36s-.01-.07-.03-.09c-.02-.02-.07-.04-.15-.06-.08-.02-.2-.04-.38-.07v-.22h1.5l-.03,.22Zm-7.91,11.82h11.26V30.55h-11.26v33.81Z"/><path class="cls-1" d="M60.61,49.07c.17,.17,.38,.25,.62,.25,.21,0,.4-.09,.57-.26,.16-.17,.29-.4,.38-.68,.09-.28,.13-.58,.13-.91s-.04-.65-.13-.94c-.08-.29-.21-.52-.37-.69-.16-.17-.36-.26-.59-.26s-.42,.09-.6,.27c-.18,.18-.31,.42-.41,.7-.1,.29-.15,.59-.15,.9,0,.34,.05,.66,.14,.94,.09,.28,.23,.51,.4,.67"/></svg>